# xmcd
#
# Track frame offsets: 
#        150
#        27004
#        46234
#        74593
#        95038
#        114570
#        119692
#        149651
#        164987
#        193700
#        208930
#        244309
#        284787
#
# Disc length: 4302 seconds
#
# Revision: 1
# Processed by: cddbd v1.5.2PL0 Copyright (c) Steve Scherf et al.
# Submitted via: ExactAudioCopy v0.99pb4
#
DISCID=e010cc0d
DTITLE=Bruce Springsteen - Trenton, 11-21-05(Samuez version-Disc 2)
DYEAR=2005
DGENRE=Rock and Roll
TTITLE0=The Rising
TTITLE1=Spare Parts
TTITLE2=Intro
TTITLE3=Jesus Was An Only Son
TTITLE4=This Hard Land
TTITLE5=Intro
TTITLE6=Song For Orphans
TTITLE7=Intro
TTITLE8=Matamoros Banks
TTITLE9=Does This Bus Stop at 82nd Street
TTITLE10=Thundercrack
TTITLE11=The Promised Land
TTITLE12=Dream Baby Dream
EXTD=
EXTT0=
EXTT1=
EXTT2=
EXTT3=
EXTT4=
EXTT5=
EXTT6=
EXTT7=
EXTT8=
EXTT9=
EXTT10=
EXTT11=
EXTT12=
PLAYORDER=
